<svg version="1.0" xmlns="http://www.w3.org/2000/svg"
 width="935.000000pt" height="329.000000pt" viewBox="0 0 935.000000 329.000000"
 preserveAspectRatio="xMidYMid meet">
<g transform="translate(0.000000,329.000000) scale(0.100000,-0.100000)"
fill="#000000" stroke="none">
<path d="M8317 3053 c-4 -3 -7 -168 -7 -365 l0 -358 -165 0 -165 0 0 -165 0
-165 165 0 165 0 0 165 0 165 360 0 360 0 0 365 0 365 -353 0 c-195 0 -357 -3
-360 -7z m523 -358 l0 -165 -165 0 -165 0 0 165 0 165 165 0 165 0 0 -165z"/>
<path d="M714 2122 c-83 -25 -140 -60 -201 -124 -87 -93 -123 -189 -123 -329
0 -276 188 -469 456 -469 55 0 99 6 139 20 61 21 156 88 182 127 28 43 36 27
31 -60 -12 -189 -106 -283 -292 -294 -102 -6 -205 15 -304 62 -41 19 -76 35
-78 35 -6 0 -86 -162 -82 -165 16 -16 144 -70 206 -87 62 -17 107 -22 232 -22
136 -1 164 2 229 22 128 41 205 101 257 203 50 100 54 139 54 627 l0 452 -110
0 -110 0 0 -70 c0 -38 -3 -70 -6 -70 -3 0 -29 21 -58 47 -81 73 -160 105 -270
109 -67 3 -107 -1 -152 -14z m318 -200 c66 -29 108 -70 139 -137 65 -136 12
-291 -125 -363 -44 -23 -63 -27 -141 -27 -103 0 -146 16 -205 75 -59 59 -75
102 -75 205 0 80 3 95 27 136 72 122 243 172 380 111z"/>
<path d="M3099 2127 c-59 -17 -103 -47 -161 -111 l-48 -51 0 78 0 78 -112 -3
-113 -3 -3 -497 -2 -498 114 0 115 0 3 318 3 317 27 57 c32 70 86 109 158 116
73 7 117 -5 160 -44 66 -60 70 -84 70 -446 l0 -318 114 0 115 0 3 323 c3 347
6 366 61 426 70 76 228 81 293 9 58 -63 59 -66 62 -425 l3 -333 115 0 114 0 0
350 c0 220 -4 369 -11 402 -24 111 -89 197 -184 240 -42 19 -67 23 -155 23
-99 0 -109 -2 -173 -33 -38 -19 -90 -56 -119 -85 l-51 -51 -16 24 c-63 96
-143 142 -260 147 -42 1 -96 -3 -122 -10z"/>
<path d="M4620 2121 c-79 -25 -110 -44 -173 -101 -132 -121 -181 -339 -118
-524 44 -125 143 -226 271 -273 163 -61 327 -29 455 89 l55 50 0 -64 c0 -197
-109 -300 -315 -301 -106 0 -189 19 -288 68 -39 19 -71 34 -73 32 -4 -4 -65
-131 -74 -154 -8 -20 -3 -25 53 -51 239 -113 547 -116 733 -7 85 50 158 160
183 273 7 35 11 206 11 507 l0 455 -115 0 -115 0 0 -71 0 -71 -39 37 c-57 54
-119 93 -175 110 -68 21 -207 19 -276 -4z m312 -197 c106 -36 178 -138 178
-253 0 -160 -119 -274 -285 -275 -89 -1 -137 16 -193 68 -149 136 -113 373 68
455 56 25 166 28 232 5z"/>
<path d="M6999 2126 c-54 -21 -115 -64 -144 -102 -14 -19 -30 -34 -36 -34 -5
0 -9 29 -9 65 l0 65 -115 0 -115 0 0 -505 0 -505 114 0 114 0 4 323 c3 301 4
325 24 367 43 94 134 142 231 122 86 -18 124 -56 148 -148 12 -46 15 -124 15
-361 l0 -303 114 0 115 0 3 328 c3 320 4 328 27 375 29 60 74 95 142 109 98
20 182 -22 223 -112 19 -42 21 -66 24 -372 l4 -328 114 0 115 0 -3 388 c-2
213 -7 395 -12 404 -6 14 -25 18 -99 20 l-92 3 -5 99 -5 100 -35 9 c-19 5 -78
7 -130 5 -115 -5 -173 -31 -262 -116 -32 -30 -58 -50 -58 -45 0 22 -90 109
-136 133 -40 20 -67 25 -144 27 -63 2 -107 -2 -131 -11z"/>
<path d="M1590 1757 c0 -403 3 -425 65 -522 37 -59 107 -108 178 -126 27 -6
84 -10 135 -7 105 5 152 26 229 104 30 30 56 54 59 54 2 0 4 -31 4 -70 l0 -70
115 0 115 0 -2 498 -3 497 -112 3 -112 3 -3 -323 -3 -323 -26 -50 c-66 -130
-245 -162 -345 -61 -25 24 -46 58 -53 81 -7 25 -11 156 -11 358 l0 317 -115 0
-115 0 0 -363z"/>
<path d="M5502 1743 c3 -371 4 -379 27 -438 17 -41 42 -77 80 -116 73 -72 131
-94 256 -93 113 0 161 20 244 101 l60 58 3 -70 3 -70 115 0 115 0 3 503 2 502
-119 0 -120 0 -3 -327 c-3 -314 -4 -330 -25 -368 -41 -78 -105 -115 -195 -115
-99 1 -172 55 -197 145 -7 25 -11 158 -11 353 l0 312 -121 0 -120 0 3 -377z"/>
</g>
</svg>
