<svg version="1.0" xmlns="http://www.w3.org/2000/svg"
 width="900.000000pt" height="500.000000pt" viewBox="0 0 900.000000 500.000000"
 preserveAspectRatio="xMidYMid meet">
<metadata>
Created by potrace 1.16, written by Peter Selinger 2001-2019
</metadata>
<g transform="translate(0.000000,500.000000) scale(0.100000,-0.100000)"
fill="#000000" stroke="none">
<path d="M1448 3218 c11 -14 8 -16 -28 -20 -23 -2 -44 0 -46 4 -3 4 -10 8 -16
8 -7 0 23 -24 64 -52 87 -60 162 -128 230 -208 57 -66 61 -55 11 28 -53 87
-116 163 -176 213 -29 24 -46 36 -39 27z"/>
<path d="M500 3113 c-75 -85 -97 -161 -64 -224 33 -65 188 -135 484 -219 402
-114 606 -213 661 -321 10 -21 17 -39 14 -39 -9 0 -110 57 -160 91 -65 44
-260 140 -350 173 -41 14 -81 23 -96 20 -14 -3 -43 1 -64 10 -20 9 -43 16 -50
16 -7 0 -25 -24 -39 -52 -15 -29 -35 -66 -45 -83 -10 -16 -32 -56 -50 -87 -31
-55 -32 -56 -11 -63 12 -4 20 -9 17 -11 -16 -16 -365 121 -463 181 -70 44
-174 143 -174 166 0 7 -3 10 -6 6 -12 -11 37 -77 104 -138 115 -105 318 -195
692 -304 107 -31 217 -69 244 -83 137 -74 132 -193 -12 -330 l-67 -62 35 6
c230 39 433 177 509 344 14 31 21 66 21 111 0 90 -34 157 -115 221 -107 87
-218 132 -669 274 -132 42 -262 87 -287 100 -136 69 -151 163 -48 293 51 64
44 66 -11 4z"/>
<path d="M2561 2960 c-200 -21 -316 -93 -341 -213 -23 -113 25 -195 152 -255
81 -39 146 -61 348 -117 179 -50 207 -63 216 -99 9 -36 -12 -65 -64 -89 -39
-18 -67 -21 -157 -22 -138 0 -235 22 -361 85 l-94 46 -45 -55 c-52 -65 -52
-65 49 -122 234 -130 593 -156 790 -57 161 80 205 264 91 375 -72 69 -173 110
-443 182 -211 56 -241 75 -207 128 55 83 365 73 547 -18 l37 -19 35 57 c20 32
36 61 36 65 0 13 -131 75 -205 97 -123 36 -239 46 -384 31z"/>
<path d="M3485 2494 c-116 -245 -211 -450 -213 -455 -2 -5 35 -9 85 -9 l88 0
45 93 45 92 240 0 240 0 45 -92 45 -93 143 0 142 0 -220 441 c-254 507 -223
469 -382 469 l-93 0 -210 -446z m370 65 c44 -94 82 -175 83 -180 2 -5 -67 -9
-166 -9 l-170 0 81 180 c45 99 84 180 87 180 3 0 41 -77 85 -171z"/>
<path d="M4520 2485 l0 -455 125 0 125 0 0 175 0 175 260 0 260 0 5 23 c14 63
25 113 25 120 0 4 -124 7 -275 7 l-275 0 0 125 0 125 304 0 303 0 12 63 c7 34
14 70 17 80 5 16 -21 17 -440 17 l-446 0 0 -455z"/>
<path d="M5570 2486 l0 -456 125 0 125 0 0 155 0 155 139 0 139 0 82 -110 c92
-124 147 -175 199 -190 20 -5 80 -10 133 -10 l98 0 -128 161 c-70 88 -128 164
-130 168 -2 5 11 13 27 19 64 22 119 70 147 128 23 47 28 70 27 133 0 116 -36
182 -128 236 -83 49 -144 57 -512 62 l-343 5 0 -456z m637 275 c54 -25 77 -61
77 -122 0 -57 -22 -93 -75 -124 -30 -17 -56 -20 -211 -24 l-178 -3 0 146 0
146 173 0 c147 0 178 -3 214 -19z"/>
<path d="M7092 2839 c-27 -57 -120 -255 -207 -439 -86 -184 -161 -343 -166
-352 -9 -17 -2 -18 80 -18 l90 0 45 95 45 95 241 0 241 0 44 -95 44 -95 141 0
c77 0 140 2 140 5 0 19 -432 864 -450 880 -18 17 -39 20 -131 23 l-108 4 -49
-103z m209 -284 c43 -92 79 -171 79 -176 0 -5 -72 -9 -165 -9 -91 0 -165 2
-165 4 0 2 28 63 61 137 34 74 70 154 80 178 11 24 22 41 25 38 3 -3 41 -80
85 -172z"/>
<path d="M7970 2936 c0 -3 0 -207 0 -453 l0 -448 90 -3 90 -3 2 266 3 266 315
-250 c340 -272 356 -281 472 -281 l58 0 -2 453 -3 452 -92 3 -93 3 -2 -271 -3
-271 -315 250 c-173 138 -330 258 -348 267 -33 15 -172 32 -172 20z"/>
<path d="M10 2082 c0 -5 23 -45 51 -88 62 -94 161 -200 246 -260 61 -45 205
-116 255 -128 l27 -6 -29 44 c-35 51 -36 56 -12 56 9 0 -23 18 -73 38 -152 64
-295 166 -392 281 -56 66 -73 81 -73 63z"/>
<path d="M1680 2081 c0 -19 -139 -158 -213 -213 -66 -49 -173 -107 -287 -157
l-25 -10 28 5 c23 5 26 4 20 -12 -3 -11 -13 -29 -21 -41 -8 -13 -10 -23 -6
-24 5 0 -7 -7 -26 -15 -33 -13 -33 -14 -5 -8 95 18 281 130 378 227 91 90 202
257 172 257 -8 0 -15 -4 -15 -9z"/>
</g>
</svg>
